<svg width="547" height="255" viewBox="0 0 547 255" xmlns="http://www.w3.org/2000/svg" xmlns:xlink="http://www.w3.org/1999/xlink"><defs><rect id="a" width="547" height="255" rx="15"/><linearGradient x1="30.271%" y1="25.821%" x2="76.287%" y2="66.45%" id="c"><stop stop-color="#00B680" offset="0%"/><stop stop-color="#00CE91" offset="100%"/></linearGradient><linearGradient x1="36.497%" y1="39.113%" x2="67.534%" y2="79.176%" id="d"><stop stop-color="#00B680" offset="0%"/><stop stop-color="#00CE91" offset="100%"/></linearGradient><linearGradient x1="30.271%" y1="31.892%" x2="76.287%" y2="62.32%" id="e"><stop stop-color="#00B680" offset="0%"/><stop stop-color="#00CE91" offset="100%"/></linearGradient><linearGradient x1="38.833%" y1=".867%" x2="51.289%" y2="55.807%" id="f"><stop stop-color="#FFF" offset="0%"/><stop stop-color="#FFF" stop-opacity="0" offset="100%"/></linearGradient><linearGradient x1="86.818%" y1="36.072%" x2="23.518%" y2="60.025%" id="g"><stop stop-color="#FFF" offset="0%"/><stop stop-color="#FFF" stop-opacity="0" offset="100%"/></linearGradient><linearGradient x1="102.894%" y1="18.36%" x2="32.67%" y2="63.51%" id="h"><stop stop-color="#FFF" offset="0%"/><stop stop-color="#FFF" stop-opacity="0" offset="100%"/></linearGradient></defs><g fill="none" fill-rule="evenodd"><mask id="b" fill="#fff"><use xlink:href="#a"/></mask><use fill="#00D895" fill-rule="nonzero" xlink:href="#a"/><g mask="url(#b)"><path fill="url(#c)" fill-rule="nonzero" d="M277 200l-32.578 15.76-137.64-156.004L81.22 80.917V68.613H21.388L83.427 3.126z" transform="translate(213 55)"/><path fill="url(#d)" fill-rule="nonzero" d="M230.46 200H48.763l-23.12-60.329 4.735-16.632 76.405-63.283z" transform="translate(213 55)"/><path fill="url(#e)" fill-rule="nonzero" d="M81.22 68.613v12.304L30.377 123.04l1.926-6.693-26.685-31.06 15.77-16.673z" transform="translate(213 55)"/><path d="M322.15 129.104v.08c0 1.122-.121 2.204-.402 3.246a12.79 12.79 0 0 1-3.25 5.852l-.442.44-3.772 3.768-16.212 16.231-6.701 6.693v-.04l-4.735 4.73s0 .04.04.04l-.12.12h-.04l-12.12 11.983-.16.16-7.384 7.254c-.16.16-.32.321-.521.481 0 .04-.04.04-.04.04a3.39 3.39 0 0 1-1.967.642c-.24 0-.441-.04-.682-.08-.642-.16-1.204-.441-1.645-.922a3.235 3.235 0 0 1-.963-2.325c0-.08.04-.2.16-.36l-.562-.562-7.664 7.575c-.602.521-1.364.802-2.207.802-1.806 0-3.29-1.483-3.29-3.327 0 0 .04-.04.08-.12l-.602.12-.602.601a3.355 3.355 0 0 1-2.207.842 3.22 3.22 0 0 1-1.605-.44c-.241-.121-.482-.321-.683-.522-.04-.04-.08-.04-.08-.08a3.298 3.298 0 0 1-.883-1.924l2.77-2.765-.041-.04c-.04 0-.04.04-.04.04l-.04.04c-.482.44-1.164.681-2.007.681-.08 0-.16 0-.24-.04-.362 0-.763-.12-1.084-.24-.843-.36-1.485-1.082-1.806-1.924l1.405-1.403.722-.721c-.2.12-.602.28-.722.28-.321 0-.602-.04-.883-.12-.722-.2-1.726-1.162-2.167-1.763l6.541-6.453.08-.08.723-.721.08-.08 19.703-19.438 5.297-5.29h.04l1.003-1.002 3.572-3.567 1.083-1.082 2.127-2.125h-45.506c-2.167 0-4.173-.52-5.979-1.442a13.043 13.043 0 0 1-4.896-4.329 13.173 13.173 0 0 1-2.287-7.414v-.08c0-1.122.16-2.205.441-3.247.08-.28.161-.56.241-.801.642-1.964 1.766-3.727 3.21-5.17l3.853-3.848 5.497-5.49 45.667-45.609.963-.962c2.126-1.923 4.855-3.126 7.865-3.366.32-.04.642-.04 1.003-.04 3.25 0 6.26 1.162 8.547 3.126a13.112 13.112 0 0 1 4.655 10.06c0 3.366-1.284 6.452-3.37 8.816l-1.004 1.002-32.464 32.423h45.827a13.07 13.07 0 0 1 5.738 1.443c.883.44 1.686 1.002 2.448 1.603a13.416 13.416 0 0 1 2.488 2.725c1.365 2.205 2.167 4.73 2.207 7.415z" fill="#00D895" fill-rule="nonzero"/><path d="M83.828 27.574L50.321 61.039l-26.404 26.37h-5.418c-2.167 0-4.213-.52-6.02-1.442a13.043 13.043 0 0 1-4.895-4.328 13.173 13.173 0 0 1-2.287-7.415v-.08c0-1.122.16-2.204.441-3.246.08-.28.16-.561.241-.802.642-1.964 1.766-3.727 3.17-5.17l3.893-3.847 5.497-5.491L64.205 9.979l.964-.961c2.126-1.924 4.855-3.127 7.865-3.367.32-.04.642-.04 1.003-.04 3.25 0 6.26 1.162 8.547 3.126a13.112 13.112 0 0 1 4.655 10.06 13.36 13.36 0 0 1-3.41 8.777z" fill="url(#f)" fill-rule="nonzero" transform="translate(213 55)"/><path fill="url(#g)" fill-rule="nonzero" d="M90.41 60.998L64.004 87.41H23.917L50.32 60.998z" transform="translate(213 55)"/><path d="M109.15 74.104v.08c0 1.122-.161 2.204-.402 3.246-.562 2.245-1.726 4.249-3.25 5.852l-.442.44-3.772 3.768-16.212 16.231-6.701 6.693c-5.418-6.612-12.72-11.622-21.148-14.107-.562-.16-1.083-.32-1.645-.44l1.645-1.644 3.572-3.567 1.083-1.082 2.127-2.124h-.04l26.404-26.371h5.779a13.07 13.07 0 0 1 5.738 1.442c.883.441 1.685 1.002 2.448 1.604a12.17 12.17 0 0 1 2.448 2.725c1.525 2.044 2.327 4.569 2.367 7.254z" fill="url(#h)" fill-rule="nonzero" transform="translate(213 55)"/><path d="M322.15 129.104v.08c0 1.122-.121 2.204-.402 3.246a12.79 12.79 0 0 1-3.25 5.852l-.442.44-3.772 3.768-16.212 16.231-6.701 6.693v-.04l-4.735 4.73s0 .04.04.04l-.12.12h-.04l-12.12 11.983-.16.16-7.384 7.254c-.16.16-.32.321-.521.481 0 .04-.04.04-.04.04a3.39 3.39 0 0 1-1.967.642c-.24 0-.441-.04-.682-.08-.642-.16-1.204-.441-1.645-.922a3.235 3.235 0 0 1-.963-2.325c0-.08.04-.2.16-.36l-.562-.562-7.664 7.575c-.602.521-1.364.802-2.207.802-1.806 0-3.29-1.483-3.29-3.327 0 0 .04-.04.08-.12l-.602.12-.602.601a3.355 3.355 0 0 1-2.207.842 3.22 3.22 0 0 1-1.605-.44c-.241-.121-.482-.321-.683-.522-.04-.04-.08-.04-.08-.08a3.298 3.298 0 0 1-.883-1.924l2.77-2.765-.041-.04c-.04 0-.04.04-.04.04l-.04.04c-.482.44-1.164.681-2.007.681-.08 0-.16 0-.24-.04-.362 0-.763-.12-1.084-.24-.843-.36-1.485-1.082-1.806-1.924l1.405-1.403.722-.721c-.2.12-.602.28-.722.28-.321 0-.602-.04-.883-.12-.722-.2-1.726-1.162-2.167-1.763l6.54-6.453.081-.08.723-.721.08-.08 19.703-19.438 5.297-5.29h.04l1.003-1.002 3.572-3.567 1.083-1.082 2.127-2.125h-45.506c-2.167 0-4.173-.52-5.979-1.442a13.043 13.043 0 0 1-4.896-4.329 13.173 13.173 0 0 1-2.287-7.414v-.08c0-1.122.16-2.205.441-3.247.08-.28.161-.56.241-.801.642-1.964 1.766-3.727 3.21-5.17l3.853-3.848 5.497-5.49 45.667-45.609.963-.962c2.126-1.923 4.855-3.126 7.865-3.366.32-.04.642-.04 1.003-.04 3.25 0 6.26 1.162 8.547 3.126a13.112 13.112 0 0 1 4.655 10.06c0 3.366-1.284 6.452-3.37 8.816l-1.004 1.002-32.464 32.423h45.827a13.07 13.07 0 0 1 5.738 1.443c.883.44 1.686 1.002 2.448 1.603a13.416 13.416 0 0 1 2.488 2.725c1.365 2.205 2.167 4.73 2.207 7.415z" fill="#FFF" fill-rule="nonzero" opacity=".45"/><path d="M286.876 79.608c-.08.08-.12.16-.16.24-.04.08-.12.16-.16.24-.402.642-.603 1.403-.603 2.205 0 .601.12 1.202.362 1.723.682 1.403.561 3.287-.843 5.01-3.37 2.285-7.063.28-7.223-2.926v-.12c-.281-1.843-1.686-3.286-3.532-3.567-.12 0-.2-.04-.32-.04h-.161c-2.97-.44-4.896-3.968-2.488-7.174 1.685-1.362 3.491-1.443 4.856-.841.521.24 1.123.4 1.765.4.843 0 1.605-.24 2.247-.64.12-.081.281-.161.402-.281 1.404-.882 3.41-.962 5.297.44 1.484 1.884 1.444 3.888.561 5.33zM281.339 65.18c1.003-1.002 3.05-.441 2.889 1.763l-4.414 4.409c-2.207.16-2.81-1.884-1.766-2.886l3.29-3.286zM289.404 64.98c1.004-1.003 3.05-.441 2.89 1.763l-4.414 4.408c-2.207.16-2.81-1.883-1.766-2.885l3.29-3.287zM293.337 69.188c1.003-1.002 3.05-.441 2.89 1.763l-4.415 4.409c-2.207.16-2.809-1.884-1.765-2.886l3.29-3.286zM292.976 77.083c1.003-1.002 3.05-.441 2.89 1.763l-4.415 4.409c-2.207.16-2.809-1.884-1.766-2.886l3.29-3.286z" fill="#FFF" fill-rule="nonzero"/><path d="M294.46 164.092l-.16.16-7.143 7.134a.704.704 0 0 1-.16-.2l-.04-.08c-1.325-1.604-3.893-4.209-5.458-5.611-1.485-1.323-3.09-2.565-4.735-3.728-1.525-1.042-3.13-1.963-4.775-2.805-.803-.4-1.565-.762-2.408-1.122a52.068 52.068 0 0 0-2.247-.882 44.104 44.104 0 0 0-4.093-1.242l7.343-7.335c.562.12 1.124.28 1.646.441 8.386 2.565 16.853 8.657 22.23 15.27z" stroke="#FFF" stroke-width="1.6" fill="#00D895" fill-rule="nonzero"/><path d="M287.037 170.544l-.12.12-12.16 11.984-.16.16-7.343 7.254-.12.12c.04-.04.08-.08.12-.16l.04-.04c-.2.2-.361.4-.562.561l-.04.04c-.562.401-1.645.24-2.368.24-.24 0-.441-.04-.682-.08a2.95 2.95 0 0 1-1.645-.921 3.305 3.305 0 0 1-.963-2.325c0-.922 8.066-9.338 8.667-9.899l-16.773 16.552a3.355 3.355 0 0 1-2.207.842c-1.806 0-3.29-1.483-3.29-3.327 0-.2 11.797-12.103 11.797-12.103l-12.6 12.464-.281.28a3.355 3.355 0 0 1-2.207.842 3.11 3.11 0 0 1-1.605-.44c-.241-.12-.482-.321-.683-.522-.04-.04-.08-.04-.08-.08a3.298 3.298 0 0 1-.883-1.924l14.366-14.187c-.16.16-11.477 11.302-11.717 11.502-.482.441-1.204.682-2.007.682h-.24c-.402 0-.763-.12-1.084-.24-.843-.362-1.485-1.083-1.806-1.925l1.405-1.402 12.038-11.903c-.481.48-10.674 10.54-11.236 11.101-.12.12-.682.36-.842.36-.321 0-.602-.04-.883-.12-.722-.2-2.087-1.723-2.488-2.284l6.54-6.452.081-.08.722-.722.08-.08 19.704-19.438" stroke="#FFF" stroke-width="1.6" stroke-linecap="round" stroke-linejoin="round"/><path d="M286.997 60.57c3.25 0 6.26 1.163 8.547 3.127a13.112 13.112 0 0 1 4.655 10.06c0 3.366-1.284 6.452-3.37 8.817l-1.004 1.001-32.464 32.423h45.827a13.07 13.07 0 0 1 5.738 1.443c.883.441 1.686 1.002 2.448 1.603a13.416 13.416 0 0 1 2.488 2.726 13.449 13.449 0 0 1 2.287 7.334v.08c0 1.122-.12 2.204-.401 3.246a12.79 12.79 0 0 1-3.25 5.852l-.442.44-3.772 3.768-16.212 16.231-6.701 6.693v-.04l-4.735 4.73s0 .04.04.04l-.12.12h-.04l-12.12 11.983-.16.16-7.384 7.254c-.16.16-.32.321-.521.481 0 .04-.04.04-.04.04a3.39 3.39 0 0 1-1.967.642c-.24 0-.441-.04-.682-.08-.642-.16-1.204-.441-1.645-.922a3.235 3.235 0 0 1-.963-2.325c0-.08.04-.2.16-.36l-.562-.562-7.664 7.575c-.602.521-1.364.802-2.207.802-1.806 0-3.29-1.483-3.29-3.327 0 0 .04-.04.08-.12l-.602.12-.602.601a3.355 3.355 0 0 1-2.207.842 3.22 3.22 0 0 1-1.605-.44c-.241-.121-.482-.321-.683-.522-.04-.04-.08-.04-.08-.08a3.298 3.298 0 0 1-.883-1.924l2.77-2.765-.041-.04c-.04 0-.04.04-.04.04l-.04.04c-.482.44-1.164.681-2.007.681-.08 0-.16 0-.24-.04-.362 0-.763-.12-1.084-.24-.843-.36-1.485-1.082-1.806-1.924l1.405-1.403.722-.721c-.2.12-.602.28-.722.28-.321 0-.602-.04-.883-.12-.722-.2-1.726-1.162-2.167-1.763l6.541-6.453.08-.08.723-.721.08-.08 19.703-19.438 5.297-5.29h.04l1.003-1.002 3.572-3.567 1.083-1.082 2.127-2.125h-45.506c-2.167 0-4.173-.52-5.979-1.442a13.043 13.043 0 0 1-4.896-4.329 13.173 13.173 0 0 1-2.287-7.414v-.08c0-1.122.16-2.205.441-3.247.08-.28.161-.56.241-.801.642-1.964 1.766-3.727 3.21-5.17l3.853-3.848 5.497-5.49 45.667-45.609.963-.962c2.126-1.923 4.855-3.126 7.865-3.366.28.04.602.04.923.04zm0-5.21c-.522 0-.963 0-1.445.08-4.093.321-7.825 1.925-10.915 4.69l-.16.16-.963.962-.04.04-45.667 45.569-5.497 5.49-3.853 3.848a18.304 18.304 0 0 0-4.454 7.214c-.12.32-.24.761-.36 1.202-.402 1.483-.563 3.006-.563 4.489v.08a18.34 18.34 0 0 0 3.21 10.38 17.726 17.726 0 0 0 6.862 6.012 18.302 18.302 0 0 0 8.347 2.004h32.905l-4.173 4.168-19.583 19.357c-.08.08-.16.12-.2.2l-.722.722-.08.08-6.502 6.453a5.186 5.186 0 0 0-.561 6.773c.08.08.28.36.642.762 0 .52.12 1.042.28 1.563a8.625 8.625 0 0 0 2.208 3.406 8.379 8.379 0 0 0 2.287 4.65l.08.08c.08.08.16.16.321.28a6.29 6.29 0 0 0 1.605 1.162c1.244.722 2.689 1.082 4.134 1.082.4 0 .762-.04 1.163-.08 1.525 1.243 3.411 1.964 5.418 1.964h.04c2.046 0 4.053-.762 5.618-2.084l.24-.24 3.17-3.127c.803.521 1.726.882 2.69 1.123.04 0 .08.04.12.04.562.12 1.123.16 1.685.16a8.47 8.47 0 0 0 4.976-1.603c.28-.2.522-.401.722-.601.12-.12.241-.24.361-.321.08-.04.12-.12.201-.2l7.344-7.254.04-.04.12-.12 11.958-11.784c.12-.12.281-.24.402-.36.12-.12.24-.28.36-.401l3.974-3.968c.12-.12.24-.2.36-.32l6.702-6.693 16.212-16.192 3.772-3.767.442-.441.08-.08a17.945 17.945 0 0 0 4.534-8.176c0-.04.04-.12.04-.16.362-1.403.522-2.846.522-4.369v-.08-.04c-.04-3.687-1.123-7.214-3.17-10.22a19.082 19.082 0 0 0-3.411-3.767 17.287 17.287 0 0 0-3.41-2.245 18.016 18.016 0 0 0-8.027-2.004H276.002l23.555-23.525.04-.04L300.6 86.3l.16-.16a18.288 18.288 0 0 0 4.736-12.304c0-5.41-2.368-10.5-6.5-14.028a18.443 18.443 0 0 0-12-4.448z" fill="#FFF" fill-rule="nonzero"/></g></g></svg>