<svg width="94" height="50" viewBox="0 0 94 50" xmlns="http://www.w3.org/2000/svg" xmlns:xlink="http://www.w3.org/1999/xlink"><defs><path id="a" d="M0 0h45v45H0z"/><path d="M6.42 8.564V10a3.462 3.462 0 0 1-.734.08c-1.695 0-3.24-1.18-3.55-2.785l-.676.684v2.1H0V0h1.46v5.787L4.379 2.77h2.028l-1.88 1.99s-.428.453-.767.955c-.135.198-.208.527-.208.754 0 .436.135.867.385 1.225.552.789 1.562 1.066 2.484.87zm11.813-1.97a.714.714 0 1 1-1.427-.003.714.714 0 0 1 1.427.002zm-.707 2.147a2.14 2.14 0 0 0 2.142-2.136 2.14 2.14 0 0 0-2.142-2.137 2.14 2.14 0 0 0-2.141 2.137c0 .566.225 1.11.626 1.51.402.4.947.626 1.515.626zm3.45-6.38L21 6.6a3.48 3.48 0 1 1-3.481-3.479c.742 0 1.43.233 1.996.63V0h1.46v2.36zm4.22 6.419c.568 0 1.113-.226 1.514-.626.402-.401.627-.944.627-1.51a2.14 2.14 0 0 0-2.142-2.137c-.568 0-1.113.225-1.515.626a2.131 2.131 0 0 0 0 3.02c.402.401.947.627 1.515.627zm0-5.65a3.477 3.477 0 0 1 3.48 3.474l-.033 2.986v.49h-1.46v-.625a3.469 3.469 0 0 1-1.988.622 3.477 3.477 0 0 1-3.48-3.473 3.477 3.477 0 0 1 3.48-3.474zm0 2.738c.395 0 .715.32.715.713 0 .394-.32.713-.716.713a.714.714 0 0 1-.715-.713c0-.393.32-.713.715-.713zm11.163 1.014v4.049c0 2.193-1.61 3.535-3.48 3.535h-.001c-1.907 0-3.446-1.273-3.477-3.133h1.483c.017.19.04.34.067.433.238.794.986 1.378 1.928 1.378.941 0 1.69-.583 1.928-1.378.136-.455.132-1.173.116-2.264-.573.365-1.279.57-2.044.57-1.108 0-2.091-.43-2.728-1.156a3.035 3.035 0 0 1-.752-2.034l-.008-3.748h1.46s-.097 3.579.1 4.238c.068.228.18.437.324.621.36.46.932.757 1.604.757s1.244-.298 1.604-.757c.146-.185.256-.395.324-.62.197-.66.1-4.24.1-4.24h1.46l-.008 3.749zm-22.68 1.58c.21.48.526.906.923 1.247-.492.24-1.19.42-1.746.42-1.696 0-3.24-1.23-3.55-2.834l-.677.684v2.1h-1.46V0h1.46v5.788l3.018-3.017h2.029l-1.98 1.992s-.428.451-.767.953c-.134.199-.208.528-.208.755 0 1.181.959 2.154 2.142 2.154.239 0 .553-.071.816-.162z" id="d"/><filter x="-.7%" y="-1.7%" width="101.4%" height="106.9%" filterUnits="objectBoundingBox" id="c"><feOffset dy=".5" in="SourceAlpha" result="shadowOffsetOuter1"/><feColorMatrix values="0 0 0 0 0 0 0 0 0 0 0 0 0 0 0 0 0 0 0.08 0" in="shadowOffsetOuter1"/></filter></defs><g fill="none" fill-rule="evenodd"><path fill="#26BEC9" d="M0 0h94v50H0z"/><g transform="translate(24 3)"><mask id="b" fill="#fff"><use xlink:href="#a"/></mask><g mask="url(#b)"><g transform="translate(4.307 15.776)" fill-rule="nonzero"><use fill="#000" filter="url(#c)" xlink:href="#d"/><use fill="#FFF" xlink:href="#d"/></g></g></g></g></svg>