<svg width="15" height="15" viewBox="0 0 15 15" xmlns="http://www.w3.org/2000/svg"><path d="M9.914 7.429A2.433 2.433 0 0 0 7.486 5a2.433 2.433 0 0 0-2.429 2.429 2.433 2.433 0 0 0 2.429 2.428A2.433 2.433 0 0 0 9.914 7.43zm1.31 0a3.733 3.733 0 0 1-3.738 3.737A3.733 3.733 0 0 1 3.748 7.43 3.733 3.733 0 0 1 7.486 3.69a3.733 3.733 0 0 1 3.737 3.738zm1.024-3.89a.87.87 0 0 1-.873.873.87.87 0 0 1-.873-.873.87.87 0 0 1 .873-.873.87.87 0 0 1 .873.873zM7.486 1.452c-1.063 0-3.34-.085-4.298.294a2.33 2.33 0 0 0-.835.55 2.33 2.33 0 0 0-.55.835c-.38.958-.294 3.235-.294 4.298 0 1.062-.085 3.339.294 4.297.133.332.294.579.55.835.257.256.503.417.835.55.958.38 3.235.294 4.298.294 1.062 0 3.339.086 4.297-.294a2.33 2.33 0 0 0 .835-.55 2.33 2.33 0 0 0 .55-.835c.38-.958.294-3.235.294-4.297 0-1.063.086-3.34-.294-4.298a2.33 2.33 0 0 0-.55-.835 2.33 2.33 0 0 0-.835-.55c-.958-.38-3.235-.294-4.297-.294zm7.285 5.977c0 1.005.01 2.001-.047 3.007-.057 1.167-.323 2.2-1.176 3.055-.854.853-1.888 1.119-3.055 1.176-1.006.057-2.002.047-3.007.047-1.006 0-2.002.01-3.008-.047-1.166-.057-2.2-.323-3.054-1.176-.854-.854-1.12-1.888-1.177-3.055C.191 9.43.2 8.434.2 7.429.2 6.423.19 5.427.247 4.42c.057-1.167.323-2.2 1.177-3.054C2.278.513 3.312.247 4.478.19 5.484.133 6.48.143 7.486.143c1.005 0 2.001-.01 3.007.047 1.167.057 2.2.323 3.055 1.177.853.853 1.12 1.887 1.176 3.054.057 1.006.047 2.002.047 3.008z" fill="#4A4A4A" fill-rule="nonzero"/></svg>