<svg width="15" height="15" viewBox="0 0 15 15" xmlns="http://www.w3.org/2000/svg"><path d="M14.771 2.975v9.107a2.733 2.733 0 0 1-2.732 2.732H2.932A2.733 2.733 0 0 1 .2 12.082V2.975A2.733 2.733 0 0 1 2.932.243h9.107a2.733 2.733 0 0 1 2.732 2.732zM4.637 5.9h-2.21v6.636h2.21V5.9zm.14-2.05c-.006-.65-.475-1.145-1.231-1.145-.75 0-1.246.496-1.246 1.145 0 .637.475 1.146 1.219 1.146h.013c.77 0 1.252-.51 1.246-1.146zM8.06 6.843V5.9H5.856s.027.622 0 6.636h2.203V8.833c0-.201.02-.396.074-.543.16-.395.522-.803 1.131-.803.797 0 1.119.609 1.119 1.5v3.549h2.203V8.732c0-2.036-1.085-2.986-2.538-2.986-1.174 0-1.698.642-1.99 1.097z" fill="#4A4A4A" fill-rule="nonzero"/></svg>