<svg width="180" height="72" viewBox="0 0 180 72" xmlns="http://www.w3.org/2000/svg"><path d="M16.98 19.318a8.431 8.431 0 0 1-.615 3.226 6.562 6.562 0 0 1-1.828 2.54c-.855.738-1.887 1.31-3.094 1.714-1.207.404-2.7.606-4.482.606-1.207 0-2.344-.044-3.41-.132a24.359 24.359 0 0 1-2.813-.377v-5.31h.633c.563.212 1.149.408 1.758.59.61.181 1.389.272 2.338.272 1.23 0 2.177-.164 2.839-.492.662-.328 1.133-.785 1.415-1.371.27-.574.422-1.204.457-1.89.035-.685.052-1.561.052-2.628V5.643H4.236V.826H16.98v18.492zM40.523 27H25.195v-4.64h4.289V5.466h-4.29V.827h15.329v4.64h-4.29v16.892h4.29V27zm32.735 0H66.28l-1.81-5.291h-9.704L52.956 27h-6.803L55.82.826h7.77L73.257 27zM62.834 16.91l-3.216-9.387L56.4 16.91h6.433zM122.856 27h-6.714V9.475l-4.852 11.373h-4.658L101.78 9.475V27h-6.363V.826h7.84l5.889 13.131 5.87-13.13h7.84V27zm23.877 0h-15.328v-4.64h4.289V5.466h-4.29V.827h15.329v4.64h-4.29v16.892h4.29V27zm32.349 0h-6.504l-11.11-17.965V27h-6.187V.826h8.068l9.545 14.994V.826h6.188V27zM15.17 71.51c-1.945 0-3.741-.287-5.388-.862-1.646-.574-3.061-1.43-4.245-2.566-1.183-1.137-2.1-2.555-2.75-4.254-.651-1.7-.976-3.662-.976-5.889 0-2.074.31-3.955.931-5.642.621-1.688 1.524-3.135 2.707-4.342 1.137-1.16 2.546-2.057 4.228-2.69 1.681-.632 3.518-.949 5.51-.949 1.102 0 2.095.062 2.98.185a20.65 20.65 0 0 1 2.452.483c.785.223 1.497.472 2.136.747.639.276 1.198.53 1.679.765v6.346h-.774a33.818 33.818 0 0 0-1.24-1.002 16.393 16.393 0 0 0-1.695-1.143 11.728 11.728 0 0 0-2.092-.949 7.358 7.358 0 0 0-2.408-.387c-.95 0-1.852.15-2.707.449-.856.298-1.647.794-2.373 1.485-.692.668-1.251 1.553-1.68 2.654-.427 1.102-.64 2.438-.64 4.008 0 1.64.23 3.012.694 4.113.462 1.102 1.045 1.97 1.749 2.602a6.397 6.397 0 0 0 2.39 1.38 8.668 8.668 0 0 0 2.602.413c.82 0 1.632-.123 2.434-.37a9.444 9.444 0 0 0 2.224-1.001c.574-.34 1.107-.703 1.6-1.09.492-.387.896-.72 1.212-1.002h.704v6.258c-.657.293-1.284.568-1.881.826-.598.258-1.225.48-1.881.668-.856.246-1.658.433-2.408.562-.75.13-1.782.194-3.094.194zM55.904 71h-6.75V59.469h-9.967V71h-6.75V44.826h6.75v9.58h9.967v-9.58h6.75V71zm28.657 0H65.63V44.826h18.932v5.063H72.344v4.517h11.338v5.063H72.344v6.468h12.217V71zm32.507 0h-6.504l-11.11-17.965V71h-6.187V44.826h8.069l9.545 14.994V44.826h6.187V71zm32.876-1.494c-1.171.457-2.724.911-4.658 1.362a25.378 25.378 0 0 1-5.783.677c-4.453 0-7.94-1.21-10.459-3.63-2.52-2.42-3.78-5.763-3.78-10.028 0-4.067 1.272-7.345 3.815-9.835 2.543-2.49 6.088-3.736 10.635-3.736 1.723 0 3.363.156 4.922.466 1.558.31 3.293.929 5.203 1.855v6.134h-.756a79.658 79.658 0 0 0-1.441-1.045 17.462 17.462 0 0 0-1.828-1.152c-.68-.375-1.474-.697-2.382-.967a10.113 10.113 0 0 0-2.892-.404c-1.195 0-2.28.176-3.252.527a7.533 7.533 0 0 0-2.619 1.618c-.738.703-1.321 1.596-1.749 2.68-.428 1.084-.642 2.335-.642 3.753 0 2.895.768 5.11 2.303 6.645 1.535 1.535 3.803 2.303 6.803 2.303.258 0 .542-.006.852-.018.31-.012.595-.03.853-.053v-5.133h-5.22v-4.94h12.075v12.92z" fill="#000" fill-rule="nonzero"/></svg>